<?xml version="1.0" encoding="UTF-8" standalone="no"?> <!-- Created with Inkscape (http://www.inkscape.org/) --> <svg xmlns:dc="http://purl.org/dc/elements/1.1/"
   xmlns:cc="http://creativecommons.org/ns#"
   xmlns:rdf="http://www.w3.org/1999/02/22-rdf-syntax-ns#"
   xmlns:svg="http://www.w3.org/2000/svg"
   xmlns="http://www.w3.org/2000/svg"
   xmlns:sodipodi="http://sodipodi.sourceforge.net/DTD/sodipodi-0.dtd"
   xmlns:inkscape="http://www.inkscape.org/namespaces/inkscape"
   width="259.90802"
   height="163.37283"
   id="svg2"
   sodipodi:version="0.32"
   inkscape:version="0.45.1+0.46pre1+devel"
   sodipodi:docname="Hamare.svg"
   inkscape:output_extension="org.inkscape.output.svg.inkscape"
   version="1.0">
  <defs
     id="defs4">
    <inkscape:perspective
       sodipodi:type="inkscape:persp3d"
       inkscape:vp_x="-50 : 600 : 1"
       inkscape:vp_y="0 : 1000 : 0"
       inkscape:vp_z="700 : 600 : 1"
       inkscape:persp3d-origin="300 : 400 : 1"
       id="perspective10" />
    <inkscape:perspective
       id="perspective2469"
       inkscape:persp3d-origin="300 : 400 : 1"
       inkscape:vp_z="700 : 600 : 1"
       inkscape:vp_y="0 : 1000 : 0"
       inkscape:vp_x="-50 : 600 : 1"
       sodipodi:type="inkscape:persp3d" />
    <filter
       inkscape:collect="always"
       id="filter3358"
       x="-0.12176921"
       width="1.2435384"
       y="-0.052298307"
       height="1.1045966">
      <feGaussianBlur
         inkscape:collect="always"
         stdDeviation="1.214068"
         id="feGaussianBlur3360" />
    </filter>
    <filter
       inkscape:collect="always"
       id="filter3430">
      <feGaussianBlur
         inkscape:collect="always"
         stdDeviation="1.0413037"
         id="feGaussianBlur3432" />
    </filter>
    <filter
       inkscape:collect="always"
       id="filter3442">
      <feGaussianBlur
         inkscape:collect="always"
         stdDeviation="0.49542683"
         id="feGaussianBlur3444" />
    </filter>
    <filter
       inkscape:collect="always"
       id="filter3482">
      <feGaussianBlur
         inkscape:collect="always"
         stdDeviation="1.5664925"
         id="feGaussianBlur3484" />
    </filter>
    <filter
       inkscape:collect="always"
       id="filter3542">
      <feGaussianBlur
         inkscape:collect="always"
         stdDeviation="0.84799655"
         id="feGaussianBlur3544" />
    </filter>
    <filter
       inkscape:collect="always"
       id="filter3650"
       x="-0.51865631"
       width="2.0373127"
       y="-0.12810208"
       height="1.2562042">
      <feGaussianBlur
         inkscape:collect="always"
         stdDeviation="1.012616"
         id="feGaussianBlur3652" />
    </filter>
    <filter
       inkscape:collect="always"
       id="filter3654"
       x="-0.36350286"
       width="1.7270057"
       y="-0.11588526"
       height="1.2317705">
      <feGaussianBlur
         inkscape:collect="always"
         stdDeviation="1.012616"
         id="feGaussianBlur3656" />
    </filter>
    <filter
       inkscape:collect="always"
       id="filter3706"
       x="-0.13196866"
       width="1.2639374"
       y="-0.050618105"
       height="1.1012362">
      <feGaussianBlur
         inkscape:collect="always"
         stdDeviation="0.32992165"
         id="feGaussianBlur3708" />
    </filter>
    <filter
       inkscape:collect="always"
       id="filter5224"
       x="-0.23833048"
       width="1.476661"
       y="-0.062673986"
       height="1.125348">
      <feGaussianBlur
         inkscape:collect="always"
         stdDeviation="0.45807503"
         id="feGaussianBlur5226" />
    </filter>
    <filter
       inkscape:collect="always"
       id="filter5228"
       x="-0.20217814"
       width="1.4043562"
       y="-0.058860663"
       height="1.1177213">
      <feGaussianBlur
         inkscape:collect="always"
         stdDeviation="0.45807503"
         id="feGaussianBlur5230" />
    </filter>
    <filter
       inkscape:collect="always"
       id="filter5582"
       x="-0.3465333"
       width="1.6930666"
       y="-0.17128985"
       height="1.3425797">
      <feGaussianBlur
         inkscape:collect="always"
         stdDeviation="0.92750316"
         id="feGaussianBlur5584" />
    </filter>
    <filter
       inkscape:collect="always"
       id="filter5586"
       x="-0.30290908"
       width="1.6058182"
       y="-0.11234468"
       height="1.2246894">
      <feGaussianBlur
         inkscape:collect="always"
         stdDeviation="0.92750316"
         id="feGaussianBlur5588" />
    </filter>
    <filter
       inkscape:collect="always"
       id="filter5590"
       x="-0.28356472"
       width="1.5671294"
       y="-0.11234468"
       height="1.2246894">
      <feGaussianBlur
         inkscape:collect="always"
         stdDeviation="0.92750316"
         id="feGaussianBlur5592" />
    </filter>
    <filter
       inkscape:collect="always"
       id="filter5594"
       x="-0.35979393"
       width="1.7195879"
       y="-0.12421883"
       height="1.2484376">
      <feGaussianBlur
         inkscape:collect="always"
         stdDeviation="0.92750316"
         id="feGaussianBlur5596" />
    </filter>
    <filter
       inkscape:collect="always"
       id="filter5598"
       x="-0.43410373"
       width="1.8682075"
       y="-0.12690131"
       height="1.2538027">
      <feGaussianBlur
         inkscape:collect="always"
         stdDeviation="0.92750316"
         id="feGaussianBlur5600" />
    </filter>
    <filter
       inkscape:collect="always"
       id="filter5602"
       x="-0.38283995"
       width="1.76568"
       y="-0.1152833"
       height="1.2305666">
      <feGaussianBlur
         inkscape:collect="always"
         stdDeviation="0.92750316"
         id="feGaussianBlur5604" />
    </filter>
    <filter
       inkscape:collect="always"
       id="filter5606"
       x="-0.42053297"
       width="1.8410659"
       y="-0.11234468"
       height="1.2246894">
      <feGaussianBlur
         inkscape:collect="always"
         stdDeviation="0.92750316"
         id="feGaussianBlur5608" />
    </filter>
    <filter
       inkscape:collect="always"
       id="filter5610"
       x="-0.53176022"
       width="2.0635204"
       y="-0.11234468"
       height="1.2246894">
      <feGaussianBlur
         inkscape:collect="always"
         stdDeviation="0.92750316"
         id="feGaussianBlur5612" />
    </filter>
    <filter
       inkscape:collect="always"
       id="filter5614"
       x="-0.58108991"
       width="2.1621797"
       y="-0.12081367"
       height="1.2416273">
      <feGaussianBlur
         inkscape:collect="always"
         stdDeviation="0.92750316"
         id="feGaussianBlur5616" />
    </filter>
    <filter
       inkscape:collect="always"
       id="filter5618"
       x="-0.41775805"
       width="1.8355161"
       y="-0.16802467"
       height="1.3360493">
      <feGaussianBlur
         inkscape:collect="always"
         stdDeviation="0.92750316"
         id="feGaussianBlur5620" />
    </filter>
  </defs>
  <sodipodi:namedview
     id="base"
     pagecolor="#ffffff"
     bordercolor="#666666"
     borderopacity="1.0"
     gridtolerance="10000"
     guidetolerance="10"
     objecttolerance="10"
     inkscape:pageopacity="0.0"
     inkscape:pageshadow="2"
     inkscape:zoom="0.98994949"
     inkscape:cx="332.3932"
     inkscape:cy="116.29634"
     inkscape:document-units="px"
     inkscape:current-layer="layer2"
     showgrid="false"
     inkscape:window-width="1152"
     inkscape:window-height="838"
     inkscape:window-x="-4"
     inkscape:window-y="-4" />
  <metadata
     id="metadata7">
    <rdf:RDF>
      <cc:Work
         rdf:about="">
        <dc:format>image/svg+xml</dc:format>
        <dc:type
           rdf:resource="http://purl.org/dc/dcmitype/StillImage" />
      </cc:Work>
    </rdf:RDF>
  </metadata>
  <g
     inkscape:label="Layer 1"
     inkscape:groupmode="layer"
     id="layer1"
     transform="translate(-185.4221,-120.31385)" />
  <g
     inkscape:groupmode="layer"
     id="layer2"
     inkscape:label="rita"
     transform="translate(-185.4221,-120.31385)">
    <path
       style="fill:#0dc322f;fill-opacity:1;fill-rule:evenodd;stroke:#000000;stroke-width:0.90407461px;stroke-linecap:butt;stroke-linejoin:miter;stroke-opacity:1"
       d="M 245.53159,120.76589 L 255.21811,121.73454 L 249.40618,131.09817 L 261.67579,122.38032 L 271.36228,124.96336 L 270.39363,128.51509 L 258.76981,140.13892 L 248.43754,151.11697 C 248.43754,151.11697 240.36543,161.12634 238.75104,165.00096 C 237.13661,168.87556 234.23063,173.71881 233.58489,177.59341 C 232.93911,181.46804 232.29336,186.63419 233.26198,187.92571 C 234.23063,189.21724 243.27138,192.12318 243.27138,192.12318 L 250.37483,191.80031 L 253.60369,193.41471 L 334.00176,192.12318 L 335.93903,188.24859 L 373.71645,183.72821 L 415.36845,184.05108 L 427.96093,183.08243 L 429.57535,182.43669 L 435.71012,182.75956 C 435.71012,182.75956 443.13648,186.95706 444.10513,190.18589 C 445.07378,193.41471 445.07378,199.22664 444.428,202.45546 C 443.78225,205.68431 441.52205,211.17333 439.26185,213.11063 C 437.00168,215.04793 431.51265,216.01658 431.51265,216.01658 L 426.66937,213.75641 L 406.97348,213.43354 L 371.77915,215.69371 L 336.26193,213.75641 L 333.03308,211.49624 L 254.57234,213.43354 L 252.95791,215.37081 L 247.46889,215.69371 L 233.58489,223.12003 C 233.58489,223.12003 227.77296,228.60906 226.15856,232.16078 C 224.54414,235.71248 221.31529,242.49306 221.31529,247.01343 C 221.31529,251.53381 223.57549,258.31435 223.57549,258.31435 L 223.89836,264.44916 L 221.63819,278.01028 C 221.63819,278.01028 219.70086,281.23913 216.47204,282.53066 C 213.24321,283.82218 198.06766,283.1764 195.80746,281.88488 C 193.54729,280.59336 187.41249,276.71873 186.12096,274.45856 C 184.82944,272.19838 189.02691,255.40841 189.02691,255.40841 L 195.16171,248.30498 C 195.16171,248.30498 197.09901,242.17018 197.09901,238.94133 C 197.09901,235.71248 192.25576,226.99463 192.25576,226.99463 L 189.34982,221.50561 L 190.64134,208.59026 C 190.64134,208.59026 195.16171,187.92571 196.13036,184.37399 C 197.09901,180.82226 203.55669,166.93826 205.81689,162.41789 C 208.07706,157.89751 219.05511,144.33639 221.31529,142.39909 C 223.57549,140.46179 245.85446,121.08877 245.53159,120.76589 z"
       id="path2478" />
  </g>
</svg>
