<?xml version="1.0" encoding="UTF-8" standalone="no"?>
<!-- Created with Inkscape (http://www.inkscape.org/) -->

<svg
   xmlns:dc="http://purl.org/dc/elements/1.1/"
   xmlns:cc="http://creativecommons.org/ns#"
   xmlns:rdf="http://www.w3.org/1999/02/22-rdf-syntax-ns#"
   xmlns:svg="http://www.w3.org/2000/svg"
   xmlns="http://www.w3.org/2000/svg"
   xmlns:sodipodi="http://sodipodi.sourceforge.net/DTD/sodipodi-0.dtd"
   xmlns:inkscape="http://www.inkscape.org/namespaces/inkscape"
   version="1.0"
   width="746.59149"
   height="279.80475"
   id="svg2330"
   inkscape:version="0.47 r22583"
   sodipodi:docname="Synth Diag VCF.svg"
   inkscape:export-filename="P:\@Wikipedia\@Commons\@Synth\@Synthesizing\Subtractive\Synth Diag VCF.png"
   inkscape:export-xdpi="115.49"
   inkscape:export-ydpi="115.49">
  <metadata
     id="metadata68">
    <rdf:RDF>
      <cc:Work
         rdf:about="">
        <dc:format>image/svg+xml</dc:format>
        <dc:type
           rdf:resource="http://purl.org/dc/dcmitype/StillImage" />
        <dc:title></dc:title>
      </cc:Work>
    </rdf:RDF>
  </metadata>
  <sodipodi:namedview
     pagecolor="#ffffff"
     bordercolor="#666666"
     borderopacity="1"
     objecttolerance="10"
     gridtolerance="10"
     guidetolerance="10"
     inkscape:pageopacity="0"
     inkscape:pageshadow="2"
     inkscape:window-width="917"
     inkscape:window-height="652"
     id="namedview66"
     showgrid="false"
     inkscape:zoom="0.8434453"
     inkscape:cx="373.29575"
     inkscape:cy="139.90237"
     inkscape:window-x="428"
     inkscape:window-y="94"
     inkscape:window-maximized="0"
     inkscape:current-layer="_147452264" />
  <defs
     id="defs2332">
    <inkscape:perspective
       sodipodi:type="inkscape:persp3d"
       inkscape:vp_x="0 : 139.90237 : 1"
       inkscape:vp_y="0 : 1000 : 0"
       inkscape:vp_z="746.59149 : 139.90237 : 1"
       inkscape:persp3d-origin="373.29575 : 93.26825 : 1"
       id="perspective70" />
  </defs>
  <g
     transform="matrix(3.5015933,0,0,3.4814395,6.2440003,-238.3325)"
     style="display:inline"
     id="_147452264">
    <rect
       width="34.626801"
       height="17.3134"
       x="49.545399"
       y="74.856003"
       style="fill:none;stroke:#2b2828;stroke-width:0.70560001999999999"
       id="_149314632" />
    <rect
       width="34.626801"
       height="17.3134"
       x="100.433"
       y="74.856003"
       style="fill:#5555ff;stroke:#2b2828;stroke-width:0.70560001999999999"
       id="_149461736" />
    <rect
       width="34.626801"
       height="17.3134"
       x="150.92599"
       y="74.856003"
       style="fill:none;stroke:#2b2828;stroke-width:0.70560002"
       id="_149456296" />
    <g
       id="g2304">
      <path
         d="M 201.999,83.8654 L 185.5535,83.8654 L 185.5535,83.1598 L 201.999,83.1598 L 201.999,83.8654 L 201.999,83.8654 z M 206.0928,83.5126 L 201.7731,85.6731 L 201.7731,81.3535 L 206.0928,83.5126 z "
         style="fill:#2b2828;fill-rule:nonzero"
         id="_149456480" />
    </g>
    <path
       d="M 190.195,79.2142 C 190.195,78.5434 190.3747,78.0185 190.735,77.6394 C 191.0953,77.2603 191.56,77.0703 192.1301,77.0703 C 192.5026,77.0703 192.8394,77.1596 193.1386,77.3374 C 193.4377,77.5162 193.6663,77.7645 193.8234,78.0834 C 193.9805,78.4014 194.0586,78.7636 194.0586,79.1671 C 194.0586,79.5773 193.9768,79.9442 193.8112,80.2669 C 193.6456,80.5905 193.4114,80.8351 193.1085,81.0016 C 192.8046,81.1681 192.4782,81.2509 192.1273,81.2509 C 191.7463,81.2509 191.4067,81.1596 191.1075,80.9752 C 190.8074,80.7918 190.5807,80.5406 190.4264,80.2227 C 190.2722,79.9056 190.195,79.5688 190.195,79.2142 z M 190.7463,79.2227 C 190.7463,79.71 190.877,80.0928 191.1386,80.3732 C 191.401,80.6535 191.7293,80.7937 192.1245,80.7937 C 192.5271,80.7937 192.8582,80.6526 193.1179,80.3694 C 193.3775,80.0862 193.5083,79.6846 193.5083,79.1643 C 193.5083,78.836 193.4518,78.5491 193.3408,78.3036 C 193.2298,78.058 193.0671,77.868 192.8535,77.7325 C 192.639,77.598 192.3992,77.5303 192.1329,77.5303 C 191.7538,77.5303 191.4283,77.6601 191.1555,77.9207 C 190.8827,78.1803 190.7463,78.6149 190.7463,79.2227 L 190.7463,79.2227 z "
       style="fill:#2b2828;fill-rule:nonzero"
       id="_149456456" />
    <path
       d="M 197.399,77.1418 L 197.9343,77.1418 L 197.9343,79.4767 C 197.9343,79.8821 197.8882,80.2048 197.796,80.4437 C 197.7038,80.6827 197.5383,80.8765 197.2984,81.026 C 197.0585,81.1766 196.7443,81.2509 196.3548,81.2509 C 195.9767,81.2509 195.6662,81.186 195.4263,81.0552 C 195.1855,80.9254 195.0133,80.7363 194.9108,80.4889 C 194.8073,80.2415 194.7565,79.9047 194.7565,79.4767 L 194.7565,77.1418 L 195.2909,77.1418 L 195.2909,79.4738 C 195.2909,79.8247 195.3238,80.0834 195.3887,80.249 C 195.4536,80.4155 195.5665,80.5434 195.7245,80.6338 C 195.8835,80.7241 196.0783,80.7692 196.3078,80.7692 C 196.701,80.7692 196.9814,80.6798 197.1488,80.5011 C 197.3153,80.3233 197.399,79.9809 197.399,79.4738 L 197.399,77.1418 L 197.399,77.1418 z "
       style="fill:#2b2828;fill-rule:nonzero"
       id="_149467480" />
    <polygon
       points="199.853,81.1822 199.853,77.6187 198.521,77.6187 198.521,77.1418 201.724,77.1418 201.724,77.6187 200.387,77.6187 200.387,81.1822 199.853,81.1822 "
       style="fill:#2b2828;fill-rule:nonzero"
       id="_149479328" />
    <g
       id="g2310">
      <path
         d="M 146.833,83.8654 L 134.7966,83.8654 L 134.7966,83.1598 L 146.833,83.1598 L 146.833,83.8654 L 146.833,83.8654 z M 150.9268,83.5126 L 146.6071,85.6731 L 146.6071,81.3535 L 150.9268,83.5126 z "
         style="fill:#2b2828;fill-rule:nonzero"
         id="_149483384" />
    </g>
    <path
       d="M 60.0245,86.4162 L 57.8583,80.825 L 58.6603,80.825 L 60.1131,84.8866 C 60.2302,85.212 60.3279,85.518 60.406,85.8018 C 60.4932,85.4971 60.5934,85.1925 60.708,84.8866 L 62.2181,80.825 L 62.9731,80.825 L 60.7835,86.4162 L 60.0245,86.4162 L 60.0245,86.4162 z "
       style="fill:#2b2828;fill-rule:nonzero"
       id="_149459544" />
    <path
       d="M 67.6257,84.4557 L 68.3665,84.6431 C 68.2116,85.2498 67.9317,85.7132 67.5294,86.0335 C 67.1259,86.3524 66.6338,86.5112 66.0506,86.5112 C 65.4478,86.5112 64.9584,86.3889 64.5808,86.1441 C 64.2033,85.8981 63.9156,85.5427 63.719,85.0779 C 63.5225,84.6119 63.4235,84.112 63.4235,83.5783 C 63.4235,82.9964 63.5342,82.4887 63.7568,82.0552 C 63.9794,81.6217 64.2957,81.2923 64.7071,81.0671 C 65.1172,80.8419 65.5689,80.7299 66.0623,80.7299 C 66.6221,80.7299 67.092,80.8718 67.4734,81.1569 C 67.8549,81.442 68.1204,81.8417 68.2701,82.3585 L 67.5424,82.5303 C 67.4123,82.1229 67.2248,81.8274 66.9775,81.6412 C 66.7314,81.455 66.4216,81.3626 66.0467,81.3626 C 65.6171,81.3626 65.2591,81.4655 64.9701,81.6711 C 64.6811,81.8781 64.478,82.1541 64.3621,82.5017 C 64.245,82.848 64.1864,83.206 64.1864,83.5744 C 64.1864,84.0508 64.2554,84.4648 64.3934,84.8202 C 64.5327,85.1743 64.7475,85.4398 65.0404,85.6156 C 65.3333,85.7913 65.6496,85.8786 65.9907,85.8786 C 66.4047,85.8786 66.7548,85.7588 67.0425,85.5206 C 67.3302,85.281 67.5242,84.9256 67.6257,84.4557 L 67.6257,84.4557 z "
       style="fill:#2b2828;fill-rule:nonzero"
       id="_149482768" />
    <path
       d="M 69.0525,83.6928 C 69.0525,82.7647 69.3012,82.0382 69.7998,81.5136 C 70.2983,80.989 70.9414,80.726 71.7303,80.726 C 72.2458,80.726 72.7119,80.8497 73.1259,81.0957 C 73.5398,81.3431 73.8562,81.6868 74.0736,82.1281 C 74.291,82.5681 74.399,83.0693 74.399,83.6277 C 74.399,84.1953 74.2858,84.703 74.0566,85.1495 C 73.8275,85.5974 73.5034,85.9358 73.0842,86.1663 C 72.6637,86.3967 72.212,86.5112 71.7264,86.5112 C 71.1992,86.5112 70.7292,86.385 70.3153,86.1298 C 69.9,85.876 69.5863,85.5284 69.3728,85.0884 C 69.1593,84.6497 69.0525,84.1836 69.0525,83.6928 z M 69.8154,83.7046 C 69.8154,84.3789 69.9963,84.9087 70.3582,85.2967 C 70.7214,85.6846 71.1758,85.8786 71.7225,85.8786 C 72.2797,85.8786 72.7379,85.6833 73.0972,85.2914 C 73.4565,84.8996 73.6375,84.3437 73.6375,83.6238 C 73.6375,83.1695 73.5594,82.7725 73.4057,82.4327 C 73.2521,82.0929 73.0269,81.83 72.7314,81.6425 C 72.4346,81.4563 72.1026,81.3626 71.7342,81.3626 C 71.2096,81.3626 70.7592,81.5423 70.3817,81.9029 C 70.0041,82.2622 69.8154,82.8636 69.8154,83.7046 L 69.8154,83.7046 z "
       style="fill:#2b2828;fill-rule:nonzero"
       id="_149485616" />
    <path
       d="M 111.657,86.3106 L 109.4908,80.7194 L 110.2928,80.7194 L 111.7456,84.781 C 111.8627,85.1064 111.9604,85.4124 112.0385,85.6962 C 112.1257,85.3915 112.2259,85.0869 112.3405,84.781 L 113.8506,80.7194 L 114.6056,80.7194 L 112.416,86.3106 L 111.657,86.3106 z "
       style="fill:#2b2828;fill-rule:nonzero"
       id="_149491768" />
    <path
       d="M 119.259,84.3501 L 119.9998,84.5375 C 119.8449,85.1442 119.565,85.6076 119.1627,85.9279 C 118.7592,86.2468 118.2671,86.4056 117.6839,86.4056 C 117.0811,86.4056 116.5917,86.2833 116.2141,86.0385 C 115.8366,85.7925 115.5489,85.4371 115.3523,84.9723 C 115.1558,84.5063 115.0568,84.0064 115.0568,83.4727 C 115.0568,82.8908 115.1675,82.3831 115.3901,81.9496 C 115.6127,81.5161 115.929,81.1867 116.3404,80.9615 C 116.7505,80.7363 117.2022,80.6243 117.6956,80.6243 C 118.2554,80.6243 118.7253,80.7662 119.1067,81.0513 C 119.4882,81.3364 119.7537,81.7361 119.9034,82.2529 L 119.1757,82.4247 C 119.0456,82.0173 118.8581,81.7218 118.6108,81.5356 C 118.3647,81.3494 118.0549,81.257 117.68,81.257 C 117.2504,81.257 116.8924,81.3599 116.6034,81.5655 C 116.3144,81.7725 116.1113,82.0485 115.9954,82.3961 C 115.8783,82.7424 115.8197,83.1004 115.8197,83.4688 C 115.8197,83.9452 115.8887,84.3592 116.0267,84.7146 C 116.166,85.0687 116.3808,85.3342 116.6737,85.51 C 116.9666,85.6857 117.2829,85.773 117.624,85.773 C 118.038,85.773 118.3881,85.6532 118.6758,85.415 C 118.9635,85.1754 119.1575,84.82 119.259,84.3501 L 119.259,84.3501 z "
       style="fill:#2b2828;fill-rule:nonzero"
       id="_149494544" />
    <polygon
       points="120.948,86.3106 120.948,80.7194 124.721,80.7194 124.721,81.3794 121.689,81.3794 121.689,83.1108 124.312,83.1108 124.312,83.7708 121.689,83.7708 121.689,86.3106 120.948,86.3106 "
       style="fill:#2b2828;fill-rule:nonzero"
       id="_149502448" />
    <path
       d="M 162.404,86.3083 L 160.2378,80.7171 L 161.0398,80.7171 L 162.4926,84.7787 C 162.6097,85.1041 162.7074,85.4101 162.7855,85.6939 C 162.8727,85.3892 162.9729,85.0846 163.0875,84.7787 L 164.5976,80.7171 L 165.3526,80.7171 L 163.163,86.3083 L 162.404,86.3083 L 162.404,86.3083 z "
       style="fill:#2b2828;fill-rule:nonzero"
       id="_149502504" />
    <path
       d="M 170.005,84.3478 L 170.7458,84.5352 C 170.5909,85.1419 170.311,85.6053 169.9087,85.9256 C 169.5052,86.2445 169.0131,86.4033 168.4299,86.4033 C 167.8271,86.4033 167.3377,86.281 166.9601,86.0362 C 166.5826,85.7902 166.2949,85.4348 166.0983,84.97 C 165.9018,84.504 165.8028,84.0041 165.8028,83.4704 C 165.8028,82.8885 165.9135,82.3808 166.1361,81.9473 C 166.3587,81.5138 166.675,81.1844 167.0864,80.9592 C 167.4965,80.734 167.9482,80.622 168.4416,80.622 C 169.0014,80.622 169.4713,80.7639 169.8527,81.049 C 170.2342,81.3341 170.4997,81.7338 170.6494,82.2506 L 169.9217,82.4224 C 169.7916,82.015 169.6041,81.7195 169.3568,81.5333 C 169.1107,81.3471 168.8009,81.2547 168.426,81.2547 C 167.9964,81.2547 167.6384,81.3576 167.3494,81.5632 C 167.0604,81.7702 166.8573,82.0462 166.7414,82.3938 C 166.6243,82.7401 166.5657,83.0981 166.5657,83.4665 C 166.5657,83.9429 166.6347,84.3569 166.7727,84.7123 C 166.912,85.0664 167.1268,85.3319 167.4197,85.5077 C 167.7126,85.6834 168.0289,85.7707 168.37,85.7707 C 168.784,85.7707 169.1341,85.6509 169.4218,85.4127 C 169.7095,85.1731 169.9035,84.8177 170.005,84.3478 L 170.005,84.3478 z "
       style="fill:#2b2828;fill-rule:nonzero"
       id="_149509968" />
    <path
       d="M 171.043,86.3083 L 173.191,80.7171 L 173.9877,80.7171 L 176.2762,86.3083 L 175.4327,86.3083 L 174.7805,84.6147 L 172.4424,84.6147 L 171.8293,86.3083 L 171.043,86.3083 L 171.043,86.3083 z M 172.6559,84.0119 L 174.5526,84.0119 L 173.9681,82.4641 C 173.7911,81.9941 173.6583,81.6075 173.5724,81.3042 C 173.5008,81.6635 173.4005,82.0189 173.2704,82.373 L 172.6559,84.0119 L 172.6559,84.0119 z "
       style="fill:#2b2828;fill-rule:nonzero"
       id="_149513800" />
    <g
       id="g2322">
      <path
         d="M 45.423,83.8639 L 32.046,83.8641 L 32.046,83.1613 L 45.423,83.1611 L 45.423,83.8639 z M 49.5006,83.5125 L 45.1981,85.6645 L 45.198,81.362 L 49.5006,83.5125 L 49.5006,83.5125 z "
         style="fill:#2b2828;fill-rule:nonzero"
         id="_149526200" />
    </g>
    <g
       id="g2325">
      <rect
         width="27.8993"
         height="11.8169"
         x="3.9073999"
         y="77.604401"
         style="fill:none;fill-rule:nonzero;stroke:#2b2828;stroke-width:0.70560002"
         id="_149555536" />
      <polygon
         points="6.6129,85.0164 6.6129,82.0119 7.0109,82.0119 7.0109,83.5019 8.503,82.0119 9.0417,82.0119 7.7811,83.2291 9.0969,85.0164 8.5723,85.0164 7.5027,83.4956 7.0109,83.9755 7.0109,85.0164 6.6129,85.0164 "
         style="fill:#2b2828;fill-rule:nonzero"
         id="_149564760" />
      <polygon
         points="9.4376,85.0164 9.4376,82.0119 11.6096,82.0119 11.6096,82.3666 9.8349,82.3666 9.8349,83.2865 11.497,83.2865 11.497,83.639 9.8349,83.639 9.8349,84.6617 11.6796,84.6617 11.6796,85.0164 9.4376,85.0164 "
         style="fill:#2b2828;fill-rule:nonzero"
         id="_149559512" />
      <path
         d="M 13.0751,85.0164 L 13.0751,83.7439 L 11.9174,82.0119 L 12.4008,82.0119 L 12.9933,82.9178 C 13.1024,83.0871 13.2038,83.2564 13.2983,83.4264 C 13.3885,83.269 13.4976,83.092 13.6264,82.8954 L 14.2084,82.0119 L 14.6715,82.0119 L 13.4725,83.7439 L 13.4725,85.0164 L 13.0751,85.0164 L 13.0751,85.0164 z "
         style="fill:#2b2828;fill-rule:nonzero"
         id="_149564808" />
      <path
         d="M 15.0114,85.0164 L 15.0114,82.0119 L 16.139,82.0119 C 16.3685,82.0119 16.5525,82.0427 16.691,82.1028 C 16.8302,82.1637 16.9386,82.2574 17.017,82.3841 C 17.0953,82.51 17.1352,82.6422 17.1352,82.7807 C 17.1352,82.9087 17.1002,83.0297 17.0302,83.143 C 16.961,83.2564 16.8554,83.348 16.7148,83.418 C 16.8966,83.4711 17.0358,83.5621 17.1338,83.6901 C 17.2317,83.8188 17.2807,83.9706 17.2807,84.1455 C 17.2807,84.2861 17.2506,84.4169 17.1911,84.5379 C 17.1317,84.6589 17.0582,84.752 16.9708,84.8177 C 16.8833,84.8835 16.7735,84.9325 16.642,84.966 C 16.5105,84.9996 16.3489,85.0164 16.1572,85.0164 L 15.0114,85.0164 L 15.0114,85.0164 z M 15.4094,83.2746 L 16.0593,83.2746 C 16.2349,83.2746 16.3615,83.2627 16.4384,83.2396 C 16.5392,83.2095 16.6154,83.1598 16.6665,83.0899 C 16.7176,83.0199 16.7434,82.9325 16.7434,82.8276 C 16.7434,82.7282 16.7197,82.6401 16.6721,82.5645 C 16.6238,82.4883 16.5553,82.4365 16.4671,82.4085 C 16.3783,82.3806 16.2258,82.3666 16.0096,82.3666 L 15.4094,82.3666 L 15.4094,83.2746 L 15.4094,83.2746 z M 15.4094,84.6617 L 16.1572,84.6617 C 16.2859,84.6617 16.3762,84.6568 16.428,84.6477 C 16.5196,84.631 16.5958,84.6037 16.6574,84.5652 C 16.719,84.5274 16.7693,84.4715 16.8092,84.3987 C 16.8484,84.3253 16.8687,84.2413 16.8687,84.1455 C 16.8687,84.0336 16.84,83.9363 16.7826,83.8531 C 16.7253,83.7705 16.6455,83.7125 16.5434,83.6789 C 16.4419,83.646 16.295,83.6292 16.1041,83.6292 L 15.4094,83.6292 L 15.4094,84.6617 L 15.4094,84.6617 z "
         style="fill:#2b2828;fill-rule:nonzero"
         id="_149558712" />
      <path
         d="M 17.7067,83.553 C 17.7067,83.0542 17.8403,82.6639 18.1082,82.382 C 18.3761,82.1 18.7217,81.9587 19.1456,81.9587 C 19.4226,81.9587 19.6731,82.0252 19.8955,82.1574 C 20.118,82.2903 20.2879,82.475 20.4048,82.7121 C 20.5216,82.9486 20.5796,83.2179 20.5796,83.518 C 20.5796,83.823 20.5188,84.0958 20.3957,84.3358 C 20.2726,84.5764 20.0984,84.7583 19.8731,84.8821 C 19.6472,85.0059 19.4044,85.0675 19.1435,85.0675 C 18.8602,85.0675 18.6077,84.9996 18.3852,84.8625 C 18.1621,84.7261 17.9935,84.5393 17.8787,84.3029 C 17.764,84.0671 17.7067,83.8167 17.7067,83.553 L 17.7067,83.553 z M 18.1166,83.5593 C 18.1166,83.9216 18.2138,84.2063 18.4083,84.4148 C 18.6035,84.6233 18.8476,84.7275 19.1414,84.7275 C 19.4408,84.7275 19.687,84.6226 19.8801,84.412 C 20.0732,84.2014 20.1704,83.9027 20.1704,83.5159 C 20.1704,83.2718 20.1284,83.0584 20.0459,82.8758 C 19.9634,82.6932 19.8423,82.5519 19.6835,82.4512 C 19.5241,82.3512 19.3457,82.3008 19.1477,82.3008 C 18.8658,82.3008 18.6238,82.3973 18.4209,82.5911 C 18.218,82.7842 18.1166,83.1074 18.1166,83.5593 L 18.1166,83.5593 z "
         style="fill:#2b2828;fill-rule:nonzero"
         id="_149569480" />
      <path
         d="M 20.7622,85.0164 L 21.9164,82.0119 L 22.3445,82.0119 L 23.5743,85.0164 L 23.121,85.0164 L 22.7706,84.1063 L 21.5142,84.1063 L 21.1847,85.0164 L 20.7622,85.0164 L 20.7622,85.0164 z M 21.6289,83.7824 L 22.6481,83.7824 L 22.3341,82.9507 C 22.2389,82.6981 22.1676,82.4904 22.1214,82.3274 C 22.0829,82.5205 22.0291,82.7114 21.9591,82.9017 L 21.6289,83.7824 z "
         style="fill:#2b2828;fill-rule:nonzero"
         id="_149577384" />
      <path
         d="M 23.8982,85.0164 L 23.8982,82.0119 L 25.2301,82.0119 C 25.498,82.0119 25.7016,82.0392 25.8408,82.0931 C 25.98,82.1469 26.0912,82.2421 26.1752,82.3785 C 26.2584,82.5156 26.2997,82.6667 26.2997,82.8318 C 26.2997,83.0451 26.2311,83.2242 26.0926,83.3704 C 25.9548,83.5166 25.7415,83.6096 25.4532,83.6495 C 25.5589,83.6999 25.6386,83.7495 25.6932,83.7992 C 25.8093,83.9055 25.9191,84.0392 26.0234,84.1986 L 26.5459,85.0164 L 26.0457,85.0164 L 25.6484,84.391 C 25.5323,84.2112 25.4365,84.0727 25.3609,83.9776 C 25.2861,83.8818 25.2189,83.8146 25.1594,83.7768 C 25.1,83.7384 25.0398,83.7118 24.9783,83.6964 C 24.9328,83.6873 24.8593,83.6824 24.7565,83.6824 L 24.2955,83.6824 L 24.2955,85.0164 L 23.8982,85.0164 z M 24.2955,83.3382 L 25.1503,83.3382 C 25.3315,83.3382 25.4742,83.3193 25.5764,83.2816 C 25.6792,83.2438 25.7568,83.1836 25.81,83.1011 C 25.8632,83.0185 25.8898,82.929 25.8898,82.8318 C 25.8898,82.6898 25.8387,82.5729 25.7352,82.4813 C 25.6323,82.3897 25.4693,82.3442 25.2462,82.3442 L 24.2955,82.3442 L 24.2955,83.3382 z "
         style="fill:#2b2828;fill-rule:nonzero"
         id="_149581368" />
      <path
         d="M 26.923,85.0164 L 26.923,82.0119 L 27.9576,82.0119 C 28.1912,82.0119 28.3696,82.0266 28.4927,82.0553 C 28.6648,82.0944 28.8117,82.1665 28.9334,82.27 C 29.0915,82.4043 29.2105,82.575 29.2888,82.7835 C 29.3679,82.992 29.407,83.2298 29.407,83.4977 C 29.407,83.7258 29.3804,83.9279 29.3266,84.1042 C 29.2734,84.2805 29.2056,84.4267 29.1216,84.5421 C 29.0384,84.6575 28.9474,84.7485 28.8481,84.8142 C 28.7495,84.8807 28.6298,84.9311 28.4899,84.9653 C 28.3493,84.9996 28.1884,85.0164 28.0073,85.0164 L 26.923,85.0164 L 26.923,85.0164 z M 27.3203,84.6617 L 27.9618,84.6617 C 28.1598,84.6617 28.3158,84.6435 28.4284,84.6065 C 28.541,84.5694 28.6305,84.5176 28.6977,84.4505 C 28.7921,84.3567 28.8656,84.2294 28.9181,84.0706 C 28.9705,83.9111 28.9971,83.7188 28.9971,83.4914 C 28.9971,83.1773 28.9453,82.936 28.8425,82.7674 C 28.739,82.5981 28.6138,82.4855 28.4662,82.4281 C 28.3598,82.3869 28.1877,82.3666 27.952,82.3666 L 27.3203,82.3666 L 27.3203,84.6617 L 27.3203,84.6617 z "
         style="fill:#2b2828;fill-rule:nonzero"
         id="_149589216" />
    </g>
    <g
       id="g2336">
      <path
         d="M 96.2161,83.8654 L 84.1805,83.8654 L 84.1805,83.1598 L 96.2161,83.1598 L 96.2161,83.8654 z M 100.3099,83.5126 L 95.9902,85.6731 L 95.9902,81.3535 L 100.3099,83.5126 z "
         style="fill:#2b2828;fill-rule:nonzero"
         id="_149589816" />
    </g>
    <rect
       width="34.626801"
       height="17.3134"
       x="100.433"
       y="108.804"
       style="opacity:1;fill:none;fill-opacity:1;fill-rule:nonzero;stroke:#2b2828;stroke-width:0.70560002"
       id="_149604880" />
    <rect
       width="34.626801"
       height="17.3134"
       x="150.92599"
       y="108.804"
       style="fill:none;fill-rule:nonzero;stroke:#2b2828;stroke-width:0.70560002"
       id="_149607568" />
    <polygon
       points="111.267,120.256 111.267,114.665 115.309,114.665 115.309,115.325 112.006,115.325 112.006,117.037 115.099,117.037 115.099,117.693 112.006,117.693 112.006,119.596 115.439,119.596 115.439,120.256 111.267,120.256 "
       style="fill:#2b2828;fill-rule:nonzero"
       id="_149614856" />
    <path
       d="M 119.078,118.063 L 119.078,117.4082 L 121.4459,117.4043 L 121.4459,119.478 C 121.0827,119.7683 120.7078,119.9857 120.3212,120.1328 C 119.9345,120.2786 119.5375,120.3515 119.1313,120.3515 C 118.582,120.3515 118.0821,120.2344 117.6343,119.9987 C 117.1851,119.7644 116.8467,119.4233 116.6175,118.9794 C 116.3884,118.5342 116.2739,118.0369 116.2739,117.4876 C 116.2739,116.9434 116.3884,116.4357 116.6162,115.9645 C 116.8428,115.4919 117.1708,115.1417 117.5978,114.9126 C 118.0248,114.6848 118.5169,114.5702 119.074,114.5702 C 119.4776,114.5702 119.8434,114.6353 120.1702,114.7668 C 120.4969,114.897 120.7534,115.0792 120.9382,115.3136 C 121.1244,115.5479 121.265,115.8525 121.3626,116.2287 L 120.6948,116.4123 C 120.6102,116.1272 120.506,115.9033 120.3824,115.7406 C 120.2574,115.5778 120.079,115.4477 119.8473,115.35 C 119.6169,115.2524 119.3591,115.2029 119.078,115.2029 C 118.7395,115.2029 118.4466,115.255 118.2005,115.3578 C 117.9532,115.4607 117.7553,115.5961 117.603,115.764 C 117.452,115.9319 117.3348,116.1155 117.2502,116.3173 C 117.1083,116.6622 117.0367,117.0371 117.0367,117.442 C 117.0367,117.9406 117.1226,118.3572 117.2945,118.693 C 117.4663,119.0289 117.7163,119.2775 118.0443,119.4403 C 118.3724,119.603 118.72,119.685 119.0884,119.685 C 119.4099,119.685 119.7223,119.6225 120.027,119.4989 C 120.3329,119.3765 120.5633,119.245 120.7208,119.1044 L 120.7208,118.063 L 119.078,118.063 L 119.078,118.063 z "
       style="fill:#2b2828;fill-rule:nonzero"
       id="_149614904" />
    <path
       d="M 124.843,120.256 L 124.157,120.256 L 124.157,115.882 C 123.9916,116.0395 123.7755,116.197 123.5074,116.3545 C 123.2379,116.512 122.9971,116.6305 122.7836,116.7086 L 122.7836,116.046 C 123.1676,115.865 123.5035,115.6463 123.7912,115.3899 C 124.0776,115.1321 124.2819,114.8835 124.4017,114.6413 L 124.843,114.6413 L 124.843,120.256 L 124.843,120.256 z "
       style="fill:#2b2828;fill-rule:nonzero"
       id="_149617112" />
    <polygon
       points="161.249,120.256 161.249,114.665 165.291,114.665 165.291,115.325 161.988,115.325 161.988,117.037 165.081,117.037 165.081,117.693 161.988,117.693 161.988,119.596 165.421,119.596 165.421,120.256 161.249,120.256 "
       style="fill:#2b2828;fill-rule:nonzero"
       id="_149625856" />
    <path
       d="M 169.06,118.063 L 169.06,117.4082 L 171.4279,117.4043 L 171.4279,119.478 C 171.0647,119.7683 170.6898,119.9857 170.3032,120.1328 C 169.9165,120.2786 169.5195,120.3515 169.1133,120.3515 C 168.564,120.3515 168.0641,120.2344 167.6163,119.9987 C 167.1671,119.7644 166.8287,119.4233 166.5995,118.9794 C 166.3704,118.5342 166.2559,118.0369 166.2559,117.4876 C 166.2559,116.9434 166.3704,116.4357 166.5982,115.9645 C 166.8248,115.4919 167.1528,115.1417 167.5798,114.9126 C 168.0068,114.6848 168.4989,114.5702 169.056,114.5702 C 169.4596,114.5702 169.8254,114.6353 170.1522,114.7668 C 170.4789,114.897 170.7354,115.0792 170.9202,115.3136 C 171.1064,115.5479 171.247,115.8525 171.3446,116.2287 L 170.6768,116.4123 C 170.5922,116.1272 170.488,115.9033 170.3644,115.7406 C 170.2394,115.5778 170.061,115.4477 169.8293,115.35 C 169.5989,115.2524 169.3411,115.2029 169.06,115.2029 C 168.7215,115.2029 168.4286,115.255 168.1825,115.3578 C 167.9352,115.4607 167.7373,115.5961 167.585,115.764 C 167.434,115.9319 167.3168,116.1155 167.2322,116.3173 C 167.0903,116.6622 167.0187,117.0371 167.0187,117.442 C 167.0187,117.9406 167.1046,118.3572 167.2765,118.693 C 167.4483,119.0289 167.6983,119.2775 168.0263,119.4403 C 168.3544,119.603 168.702,119.685 169.0704,119.685 C 169.3919,119.685 169.7043,119.6225 170.009,119.4989 C 170.3149,119.3765 170.5453,119.245 170.7028,119.1044 L 170.7028,118.063 L 169.06,118.063 L 169.06,118.063 z "
       style="fill:#2b2828;fill-rule:nonzero"
       id="_149618280" />
    <path
       d="M 175.849,119.596 L 175.849,120.256 L 172.1532,120.256 C 172.148,120.0907 172.1741,119.9319 172.2326,119.7795 C 172.3264,119.527 172.4774,119.2796 172.6844,119.0349 C 172.8927,118.7915 173.1921,118.509 173.5826,118.1887 C 174.1905,117.6902 174.6019,117.2957 174.8154,117.0041 C 175.0289,116.7138 175.1357,116.4378 175.1357,116.1788 C 175.1357,115.9067 175.038,115.6776 174.844,115.4901 C 174.6488,115.304 174.3949,115.2102 174.0825,115.2102 C 173.7518,115.2102 173.4876,115.3092 173.2897,115.5083 C 173.0905,115.7062 172.9903,115.9809 172.9877,116.3311 L 172.2821,116.2595 C 172.3303,115.7322 172.5125,115.3313 172.8276,115.0553 C 173.1426,114.7793 173.567,114.6413 174.0981,114.6413 C 174.6345,114.6413 175.0588,114.791 175.3713,115.0879 C 175.685,115.386 175.8412,115.7544 175.8412,116.1944 C 175.8412,116.4183 175.7957,116.6383 175.7032,116.8544 C 175.6121,117.0705 175.4598,117.2983 175.2476,117.5365 C 175.0354,117.7761 174.6826,118.1041 174.1892,118.5207 C 173.7779,118.867 173.5136,119.1013 173.3964,119.225 C 173.2793,119.3473 173.183,119.471 173.1061,119.596 L 175.849,119.596 L 175.849,119.596 z "
       style="fill:#2b2828;fill-rule:nonzero"
       id="_149623936" />
    <g
       id="g2347">
      <path
         d="M 118.099,96.6087 L 118.099,108.6445 L 117.3934,108.6445 L 117.3934,96.6087 L 118.099,96.6087 z M 117.7462,92.5149 L 119.9067,96.8346 L 115.5871,96.8346 L 117.7462,92.5149 z "
         style="fill:#2b2828;fill-rule:nonzero"
         id="_149639504" />
    </g>
    <g
       id="g2350">
      <path
         d="M 168.592,96.6088 L 168.592,108.6444 L 167.8864,108.6444 L 167.8864,96.6088 L 168.592,96.6088 z M 168.2392,92.515 L 170.3997,96.8347 L 166.0801,96.8347 L 168.2392,92.515 z "
         style="fill:#2b2828;fill-rule:nonzero"
         id="_149646208" />
    </g>
    <g
       id="g2353">
      <path
         d="M 168.24,126.302 L 170.3991,130.6217 L 166.0795,130.6217 L 168.24,126.302 L 168.24,126.302 z M 168.24,142.7843 L 167.8872,142.4315 L 167.8872,130.3958 L 168.5928,130.3958 L 168.5928,142.4315 L 168.24,142.7843 z M 168.5928,142.4315 L 168.5928,142.7843 L 168.24,142.7843 L 168.5928,142.4315 z M 17.7408,142.4315 L 18.0936,142.0787 L 168.2406,142.0787 L 168.2406,142.7843 L 18.0936,142.7843 L 17.7408,142.4315 L 17.7408,142.4315 z M 18.0936,142.7843 L 17.7408,142.7843 L 17.7408,142.4315 L 18.0936,142.7843 z M 18.4464,89.3998 L 18.4464,142.4315 L 17.7408,142.4315 L 17.7408,89.3998 L 18.4464,89.3998 z "
         style="fill:#2b2828;fill-rule:nonzero"
         id="_149646736" />
    </g>
    <g
       id="g2356">
      <path
         d="M 118.099,130.386 L 118.099,142.4216 L 117.3934,142.4216 L 117.3934,130.386 L 118.099,130.386 z M 117.7462,126.2922 L 119.9067,130.6119 L 115.5871,130.6119 L 117.7462,126.2922 z "
         style="fill:#2b2828;fill-rule:nonzero"
         id="_149661024" />
    </g>
    <path
       d="M 24.3708,137.593 L 24.3708,137.1198 L 26.082,137.117 L 26.082,138.6155 C 25.8196,138.8253 25.5486,138.9824 25.2692,139.0887 C 24.9898,139.1941 24.7029,139.2468 24.4094,139.2468 C 24.0124,139.2468 23.6512,139.1621 23.3276,138.9918 C 23.003,138.8225 22.7584,138.576 22.5928,138.2552 C 22.4273,137.9335 22.3445,137.5741 22.3445,137.1772 C 22.3445,136.7839 22.4273,136.417 22.5919,136.0765 C 22.7556,135.735 22.9927,135.482 23.3012,135.3164 C 23.6098,135.1518 23.9654,135.069 24.368,135.069 C 24.6596,135.069 24.924,135.116 25.1601,135.211 C 25.3962,135.3051 25.5816,135.4368 25.7151,135.6061 C 25.8497,135.7755 25.9513,135.9956 26.0218,136.2675 L 25.5392,136.4001 C 25.4781,136.1941 25.4028,136.0323 25.3134,135.9147 C 25.2231,135.7971 25.0943,135.703 24.9268,135.6325 C 24.7603,135.5619 24.574,135.5262 24.3708,135.5262 C 24.1262,135.5262 23.9146,135.5638 23.7368,135.6381 C 23.558,135.7124 23.415,135.8103 23.305,135.9316 C 23.1959,136.053 23.1112,136.1856 23.05,136.3314 C 22.9475,136.5807 22.8958,136.8517 22.8958,137.1442 C 22.8958,137.5045 22.9579,137.8056 23.082,138.0483 C 23.2062,138.291 23.3868,138.4707 23.6239,138.5883 C 23.861,138.7059 24.1121,138.7651 24.3784,138.7651 C 24.6107,138.7651 24.8365,138.72 25.0566,138.6306 C 25.2777,138.5422 25.4442,138.4472 25.558,138.3456 L 25.558,137.593 L 24.3708,137.593 L 24.3708,137.593 z "
       style="fill:#2b2828;fill-rule:nonzero"
       id="_149655536" />
    <path
       d="M 26.4263,139.178 L 27.9785,135.1376 L 28.5543,135.1376 L 30.2081,139.178 L 29.5985,139.178 L 29.1272,137.9541 L 27.4376,137.9541 L 26.9945,139.178 L 26.4263,139.178 z M 27.5919,137.5185 L 28.9626,137.5185 L 28.5402,136.4 C 28.4122,136.0604 28.3163,135.781 28.2542,135.5618 C 28.2024,135.8215 28.13,136.0783 28.0359,136.3342 L 27.5919,137.5185 z "
       style="fill:#2b2828;fill-rule:nonzero"
       id="_149664560" />
    <polygon
       points="31.2448,139.178 31.2448,135.615 29.9136,135.615 29.9136,135.138 33.1159,135.138 33.1159,135.615 31.7791,135.615 31.7791,139.178 31.2448,139.178 "
       style="fill:#2b2828;fill-rule:nonzero"
       id="_149676552" />
    <polygon
       points="33.6756,139.178 33.6756,135.138 36.5966,135.138 36.5966,135.615 34.21,135.615 34.21,136.852 36.4452,136.852 36.4452,137.326 34.21,137.326 34.21,138.701 36.6907,138.701 36.6907,139.178 33.6756,139.178 "
       style="fill:#2b2828;fill-rule:nonzero"
       id="_149675448" />
    <rect
       width="34.626801"
       height="17.3134"
       x="49.5453"
       y="108.804"
       style="fill:none;fill-rule:nonzero;stroke:#2b2828;stroke-width:0.70560002"
       id="_149684376" />
    <polygon
       points="60.0106,120.258 60.0106,114.667 60.7513,114.667 60.7513,119.598 63.5046,119.598 63.5046,120.258 60.0106,120.258 "
       style="fill:#2b2828;fill-rule:nonzero"
       id="_149690832" />
    <polygon
       points="64.4237,120.258 64.4237,114.667 68.1963,114.667 68.1963,115.327 65.1644,115.327 65.1644,117.058 67.7875,117.058 67.7875,117.718 65.1644,117.718 65.1644,120.258 64.4237,120.258 "
       style="fill:#2b2828;fill-rule:nonzero"
       id="_149688744" />
    <path
       d="M 68.9318,117.535 C 68.9318,116.6069 69.1805,115.8804 69.6791,115.3558 C 70.1776,114.8312 70.8207,114.5682 71.6096,114.5682 C 72.1251,114.5682 72.5912,114.6919 73.0052,114.9379 C 73.4191,115.1853 73.7355,115.529 73.9529,115.9703 C 74.1703,116.4103 74.2783,116.9115 74.2783,117.4699 C 74.2783,118.0375 74.1651,118.5452 73.9359,118.9917 C 73.7068,119.4396 73.3827,119.778 72.9635,120.0085 C 72.543,120.2389 72.0913,120.3534 71.6057,120.3534 C 71.0785,120.3534 70.6085,120.2272 70.1946,119.972 C 69.7793,119.7182 69.4656,119.3706 69.2521,118.9306 C 69.0386,118.4919 68.9318,118.0258 68.9318,117.535 z M 69.6947,117.5468 C 69.6947,118.2211 69.8756,118.7509 70.2375,119.1389 C 70.6007,119.5268 71.0551,119.7208 71.6018,119.7208 C 72.159,119.7208 72.6172,119.5255 72.9765,119.1336 C 73.3358,118.7418 73.5168,118.1859 73.5168,117.466 C 73.5168,117.0117 73.4387,116.6147 73.285,116.2749 C 73.1314,115.9351 72.9062,115.6722 72.6107,115.4847 C 72.3139,115.2985 71.9819,115.2048 71.6135,115.2048 C 71.0889,115.2048 70.6385,115.3845 70.261,115.7451 C 69.8834,116.1044 69.6947,116.7058 69.6947,117.5468 L 69.6947,117.5468 z "
       style="fill:#2b2828;fill-rule:nonzero"
       id="_149688792" />
    <g
       id="g2367">
      <path
         d="M 67.2115,96.6088 L 67.2115,108.6445 L 66.5059,108.6445 L 66.5059,96.6088 L 67.2115,96.6088 z M 66.8587,92.515 L 69.0192,96.8347 L 64.6996,96.8347 L 66.8587,92.515 z "
         style="fill:#2b2828;fill-rule:nonzero"
         id="_149700136" />
    </g>
    <g
       transform="matrix(0.6428836,0,0,0.6466052,20.399772,28.872544)"
       style="fill-rule:evenodd"
       id="Warstwa_x0020_1">
      <path
         d="M 30.6092,78.6219 L 31.4121,78.8251 C 31.2442,79.4826 30.9408,79.985 30.5048,80.3321 C 30.0673,80.6779 29.5339,80.85 28.9018,80.85 C 28.2484,80.85 27.7178,80.7174 27.3086,80.4521 C 26.8994,80.1854 26.5875,79.8001 26.3744,79.2964 C 26.1614,78.7912 26.0541,78.2493 26.0541,77.6708 C 26.0541,77.04 26.1741,76.4897 26.4154,76.0198 C 26.6567,75.5499 26.9996,75.1928 27.4455,74.9487 C 27.89,74.7046 28.3796,74.5832 28.9145,74.5832 C 29.5212,74.5832 30.0307,74.7371 30.4441,75.0461 C 30.8576,75.3551 31.1454,75.7883 31.3077,76.3485 L 30.5189,76.5348 C 30.3778,76.0931 30.1746,75.7728 29.9065,75.571 C 29.6398,75.3692 29.3039,75.269 28.8975,75.269 C 28.4319,75.269 28.0438,75.3805 27.7305,75.6035 C 27.4173,75.8278 27.1971,76.127 27.0715,76.5038 C 26.9445,76.8791 26.881,77.2672 26.881,77.6665 C 26.881,78.183 26.9558,78.6317 27.1054,79.017 C 27.2564,79.4008 27.4892,79.6887 27.8067,79.8792 C 28.1242,80.0697 28.4671,80.1642 28.8368,80.1642 C 29.2856,80.1642 29.6652,80.0344 29.977,79.7762 C 30.2889,79.5165 30.4991,79.1313 30.6092,78.6219 L 30.6092,78.6219 z M 34.1314,80.747 L 31.7833,74.6863 L 32.6525,74.6863 L 34.2273,79.0889 C 34.3543,79.4417 34.4602,79.7733 34.5448,80.081 C 34.6394,79.7508 34.748,79.4206 34.8722,79.0889 L 36.5091,74.6863 L 37.3276,74.6863 L 34.9541,80.747 L 34.1314,80.747 L 34.1314,80.747 z "
         id="path2682" />
    </g>
  </g>
</svg>
